%
M48
M72
T01C0.0197
T02C0.0240
T03C0.0320
T04C0.0354
T05C0.0360
T06C0.0394
T07C0.0400
T08C0.0433
T09C0.0433
T10C0.0440
T11C0.0470
T12C0.0520
T13C0.0669
T14C0.0670
T15C0.0984
T16C0.1000
T17C0.1180
T18C0.1300
T19C0.1400
T20C0.2700
%
T01
X6988Y6614
X6988Y11802
X8051Y17177
X12051Y17177
X16051Y17177
X18051Y20114
X18613Y20489
X20613Y22052
X20551Y22614
X21488Y21614
X21676Y21114
X23113Y24114
X22676Y25052
X21113Y24614
X25113Y26739
X25113Y27114
X25113Y27489
X30238Y29614
X31113Y29114
X31113Y26114
X37301Y29614
X38051Y29427
X35738Y30614
X36176Y31614
X36613Y32614
X43051Y32114
X43926Y32614
X44926Y33614
X45926Y34614
X47176Y32114
X50863Y31802
X57988Y35614
X59238Y36114
X60238Y36614
X59738Y38052
X59238Y38739
X59863Y39614
X60738Y39677
X61176Y39114
X61738Y39114
X57988Y38177
X56988Y38114
X57426Y37114
X59738Y34614
X60738Y33614
X61738Y32614
X64363Y29864
X65363Y29489
X66363Y28364
X68738Y28427
X66363Y26552
X67363Y25677
X72426Y28427
X73426Y27927
X74301Y27489
X69738Y32614
X68738Y37114
X66738Y37614
X56988Y43114
X57426Y43552
X50863Y46552
X48363Y45552
X46551Y48739
X42426Y46802
X41988Y46302
X40863Y43802
X36488Y40864
X35301Y39614
X22801Y40864
X20613Y41489
X19051Y40302
X21676Y42989
X22301Y42989
X16363Y43364
X13176Y38114
X12176Y37114
X11176Y36114
X10176Y35114
X9176Y34302
X8176Y33614
X14301Y34302
X16551Y32427
X19863Y30114
X22238Y32114
X10676Y28614
X10301Y26802
X7176Y28614
X5676Y29614
X4051Y22177
X1676Y20802
X4051Y17177
X9551Y20802
X8051Y22177
X12051Y22177
X16051Y22177
X25676Y17989
X25613Y16927
X27801Y18927
X27488Y20489
X31363Y19552
X30801Y16927
X35301Y18927
X35738Y18489
X36176Y18989
X36613Y19552
X35738Y19552
X37863Y20052
X36613Y21114
X36176Y22114
X37863Y23614
X41988Y22614
X42426Y23614
X41676Y19552
X41051Y16927
X35926Y16927
X34863Y13864
X35863Y13364
X35863Y11864
X33738Y12364
X32738Y12864
X30738Y13364
X29738Y13864
X27613Y12864
X28613Y12364
X27613Y10989
X28613Y10489
X29738Y9989
X32738Y10989
X33738Y10489
X34863Y9989
X37863Y10989
X38863Y10489
X39988Y9989
X39988Y11364
X40988Y11864
X40988Y13364
X39988Y13864
X37863Y12864
X38863Y12364
X42988Y12864
X43488Y12864
X43988Y12364
X45113Y13364
X45863Y13114
X44488Y13864
X45863Y12239
X45863Y11364
X43988Y10489
X42988Y10989
X47738Y8739
X48238Y9614
X48738Y10489
X49238Y11364
X49738Y12239
X50238Y13114
X50738Y13989
X51238Y14864
X62176Y18239
X62738Y18677
X63238Y19114
X63738Y19552
X67363Y17114
X66363Y16614
X65363Y16114
X64363Y15614
X68363Y17614
X69363Y18114
X70363Y18614
X71363Y19114
X70363Y20114
X69363Y20614
X68363Y21614
X71363Y21114
X71363Y14864
X70363Y13989
X69363Y13114
X68363Y12239
X67363Y11364
X66363Y10489
X65363Y9614
X64363Y8739
X63738Y9177
X63301Y8302
X62738Y7802
X62176Y7302
X61426Y4802
X66863Y4802
X51238Y7614
X50738Y7114
X50238Y6614
X49738Y6114
X49238Y5614
X48738Y5114
X48238Y4614
X42988Y4614
X39988Y5114
X36988Y5614
X33988Y6114
X30988Y6614
X27988Y7114
X24988Y7614
X24613Y9989
X22676Y11802
X25613Y11864
X25613Y13364
X24613Y13864
X30738Y11864
X20488Y6114
X20051Y6614
X19613Y7614
X18613Y9114
X19176Y9614
X21363Y5614
X21801Y5114
X20926Y4614
X22238Y4114
X50926Y24614
X50926Y25614
X58738Y27927
X59738Y27489
X60301Y26989
X79488Y32614
X84426Y29052
X86613Y29114
X89176Y27052
X88738Y26614
X88238Y26114
X86613Y25239
X84926Y26114
X86113Y26989
X89613Y27614
X90051Y28114
X90488Y28614
X90488Y24364
X90051Y23489
X89176Y22614
X88738Y23052
X89613Y22114
X88238Y23927
X88176Y33114
X88676Y34114
X89176Y35114
X89676Y35614
X90613Y43114
X90176Y43552
X88176Y46614
X88676Y47114
X89176Y47614
X89676Y48114
X90176Y48614
X90613Y49114
X84988Y47927
X84926Y46239
X84426Y44052
X75426Y47927
X70363Y47114
X59863Y48427
T02
X27488Y28114
X27488Y26114
T03
X33613Y25614
X33613Y24614
X33613Y23614
X33613Y22614
X33613Y21614
X33613Y20614
X39613Y20614
X39613Y21614
X39613Y22614
X39613Y23614
X39613Y24614
X39613Y25614
X39613Y26614
X39613Y27614
X39613Y28614
X39613Y29614
X39613Y30614
X39613Y31614
X39613Y32614
X39613Y33614
X39613Y34614
X39613Y35614
X39613Y36614
X39613Y37614
X39613Y38614
X39613Y39614
X37488Y42927
X36488Y42927
X33613Y39614
X33613Y38614
X33613Y37614
X33613Y36614
X33613Y35614
X33613Y34614
X33613Y33614
X33613Y32614
X33613Y31614
X33613Y30614
X33613Y29614
X33613Y28614
X33613Y27614
X33613Y26614
X22801Y35614
X24801Y36614
X22801Y37614
X29551Y42802
X30551Y42802
X24988Y42864
X24988Y43864
X13676Y32427
X12676Y32427
X11676Y32427
X10676Y32427
X9676Y32427
X8676Y32427
X7676Y32427
X6676Y32427
X5676Y32427
X5676Y30677
X6676Y30677
X7676Y30677
X8676Y30677
X9676Y30677
X10676Y30677
X11676Y30677
X12676Y30677
X12676Y27677
X11676Y27677
X10676Y27677
X9676Y27677
X8676Y27677
X7676Y27677
X6676Y27677
X5676Y27677
X24613Y14864
X25613Y14864
X26613Y14864
X27613Y14864
X28613Y14864
X29738Y14864
X30738Y14864
X31738Y14864
X32738Y14864
X33738Y14864
X34863Y14864
X35863Y14864
X36863Y14864
X37863Y14864
X38863Y14864
X39988Y14864
X40988Y14864
X41988Y14864
X42988Y14864
X43988Y14864
X43988Y8864
X42988Y8864
X41988Y8864
X40988Y8864
X39988Y8864
X38863Y8864
X37863Y8864
X36863Y8864
X35863Y8864
X34863Y8864
X33738Y8864
X32738Y8864
X31738Y8864
X30738Y8864
X29738Y8864
X28613Y8864
X27613Y8864
X26613Y8864
X25613Y8864
X24613Y8864
X24988Y2364
X24988Y1364
X27988Y1364
X27988Y2364
X30988Y2364
X30988Y1364
X33988Y1364
X33988Y2364
X36988Y2364
X36988Y1364
X39988Y1364
X39988Y2364
X42988Y2364
X42988Y1364
X45988Y1364
X45988Y2364
X79488Y49114
X78488Y51114
X80488Y51114
X83988Y51114
X85988Y51114
X84988Y49114
T04
X69988Y50864
X66988Y50864
T05
X65176Y48427
X64176Y48427
X61863Y51489
X60863Y51489
X59863Y51489
X58863Y51489
X57863Y51489
X57863Y52489
X58863Y52489
X59863Y52489
X60863Y52489
X61863Y52489
X53363Y46052
X52363Y46052
X52363Y45052
X53363Y45052
X37488Y45177
X36488Y45177
X35488Y45177
X28488Y38614
X27488Y38614
X27488Y37614
X28488Y37614
X28488Y36614
X27488Y36614
X27488Y35614
X28488Y35614
X28488Y34614
X27488Y34614
X16301Y39864
X15301Y39864
X29238Y28114
X30238Y28114
X30238Y26114
X29238Y26114
X29238Y22614
X30238Y22614
X17551Y24177
X17551Y25177
X43926Y30114
X44926Y30114
X45926Y30114
X45926Y31114
X44926Y31114
X43926Y31114
X43676Y16927
X44676Y16927
X22676Y2364
X22676Y1364
T06
X33238Y46614
X34176Y46614
T07
X31551Y45114
X30551Y45114
X29551Y45114
X37496Y47639
X37496Y48427
X38481Y48427
X38481Y47639
X45953Y49302
X47033Y49302
X48113Y49302
X49193Y49302
X50273Y49302
X49733Y50302
X48653Y50302
X47573Y50302
X46493Y50302
X14488Y48114
X12488Y48114
X8176Y10614
X8176Y9614
X8176Y8614
X8176Y7614
X8176Y6614
X8176Y5614
X8176Y4614
X8176Y3614
X17176Y3614
X17176Y4614
X17176Y5614
X17176Y6614
X17176Y7614
X17176Y8614
X17176Y9614
X17176Y10614
X93363Y9114
X94363Y9114
X94363Y8114
X93363Y8114
X93363Y7114
X94363Y7114
X94363Y6114
X93363Y6114
X93363Y5114
X94363Y5114
X94363Y15114
X93363Y15114
X93363Y16114
X94363Y16114
X94363Y17114
X93363Y17114
X93363Y18114
X93363Y19114
X94363Y19114
X94363Y18114
X94363Y25114
X93363Y25114
X93363Y26114
X94363Y26114
X94363Y27114
X93363Y27114
X93363Y28114
X94363Y28114
X94363Y29114
X93363Y29114
X93363Y35114
X94363Y35114
X94363Y36114
X93363Y36114
X93363Y37114
X94363Y37114
X94363Y38114
X93363Y38114
X93363Y39114
X94363Y39114
X94363Y45114
X93363Y45114
X93363Y46114
X94363Y46114
X94363Y47114
X93363Y47114
X93363Y48114
X94363Y48114
X94363Y49114
X93363Y49114
T08
X73738Y30489
X72738Y30489
X71738Y30489
X70738Y30489
X69738Y30489
X68738Y30489
X67738Y30489
X66738Y30489
X65738Y30489
X64738Y30489
X63738Y30489
X62738Y30489
X61738Y30489
X60738Y30489
X59738Y30489
X58738Y30489
T09
X58418Y2103
X59418Y2103
X60418Y2103
X61418Y2103
X62418Y2103
X63418Y2103
X64418Y2103
X65418Y2103
X66418Y2103
X67418Y2103
X68418Y2103
X69418Y2103
X70418Y2103
X71418Y2103
X72418Y2103
X73418Y2103
X74418Y2103
X75418Y2103
X76418Y2103
X77418Y2103
T10
X22988Y45114
X21988Y45114
X20988Y45114
X16738Y48114
X16738Y52114
T11
X1926Y44239
X1926Y42239
X1926Y40239
T12
X6326Y39889
X11126Y39889
X11926Y42239
X11126Y44589
X6326Y44589
T13
X12488Y52114
X14488Y52114
T14
X2863Y48614
X73988Y50739
X3363Y7177
X51113Y2864
T15
X53886Y2099
X88532Y2099
X88532Y27690
X86176Y31052
X86738Y45177
X56301Y31052
X53886Y27690
X55738Y45177
T16
X40351Y49490
X35626Y49490
T17
X8238Y50583
X6388Y49402
X8238Y48220
T18
X30551Y51014
X43183Y49802
X53043Y49802
T19
X21988Y51114
T20
X2613Y2489
X2613Y51989
X95863Y51989
X95863Y2489
M30
